<svg width="81" height="73" viewBox="0 0 81 73" fill="none" xmlns="http://www.w3.org/2000/svg">
<path d="M59.3372 73H21.6628C5.04837 73 0 67.9836 0 51.4744V21.5256C0 5.01641 5.04837 0 21.6628 0H59.3372C75.9516 0 81 5.01641 81 21.5256V51.4744C81 67.9836 75.9516 73 59.3372 73ZM21.6628 5.61538C8.17535 5.61538 5.65116 8.16103 5.65116 21.5256V51.4744C5.65116 64.839 8.17535 67.3846 21.6628 67.3846H59.3372C72.8246 67.3846 75.3488 64.839 75.3488 51.4744V21.5256C75.3488 8.16103 72.8246 5.61538 59.3372 5.61538H21.6628Z" fill="#292D32"/>
<path d="M66.8721 24.3333H48.0349C46.4903 24.3333 45.2094 23.0605 45.2094 21.5256C45.2094 19.9908 46.4903 18.718 48.0349 18.718H66.8721C68.4168 18.718 69.6977 19.9908 69.6977 21.5256C69.6977 23.0605 68.4168 24.3333 66.8721 24.3333Z" fill="#292D32"/>
<path d="M66.8722 39.3077H51.8024C50.2577 39.3077 48.9768 38.0349 48.9768 36.5C48.9768 34.9651 50.2577 33.6923 51.8024 33.6923H66.8722C68.4168 33.6923 69.6977 34.9651 69.6977 36.5C69.6977 38.0349 68.4168 39.3077 66.8722 39.3077Z" fill="#292D32"/>
<path d="M66.8721 54.2821H59.3372C57.7925 54.2821 56.5116 53.0092 56.5116 51.4744C56.5116 49.9395 57.7925 48.6667 59.3372 48.6667H66.8721C68.4167 48.6667 69.6976 49.9395 69.6976 51.4744C69.6976 53.0092 68.4167 54.2821 66.8721 54.2821Z" fill="#292D32"/>
<path d="M27.3155 36.6494C22.0035 36.6494 17.6709 32.3442 17.6709 27.0659C17.6709 21.7874 22.0035 17.4823 27.3155 17.4823C32.6276 17.4823 36.9601 21.7874 36.9601 27.0659C36.9601 32.3442 32.6276 36.6494 27.3155 36.6494ZM27.3155 23.0977C25.1304 23.0977 23.3221 24.8946 23.3221 27.0659C23.3221 29.2371 25.1304 31.034 27.3155 31.034C29.5007 31.034 31.309 29.2371 31.309 27.0659C31.309 24.8946 29.5007 23.0977 27.3155 23.0977Z" fill="#292D32"/>
<path d="M40.4996 55.5167C39.068 55.5167 37.8248 54.431 37.6741 52.971C37.2596 48.928 33.982 45.671 29.8755 45.2967C28.1425 45.1469 26.4094 45.1469 24.6764 45.2967C20.5699 45.671 17.2922 48.8905 16.8778 52.971C16.7271 54.5059 15.3332 55.6664 13.7885 55.4792C12.2439 55.3295 11.1136 53.9444 11.2643 52.4095C11.9425 45.671 17.3299 40.3177 24.149 39.7187C26.2211 39.5315 28.3308 39.5315 30.4029 39.7187C37.1843 40.3551 42.6094 45.7085 43.2875 52.4095C43.4382 53.9444 42.308 55.3295 40.7634 55.4792C40.688 55.5167 40.575 55.5167 40.4996 55.5167Z" fill="#292D32"/>
</svg>
